<svg viewBox="0 0 48 48" xmlns="http://www.w3.org/2000/svg" xmlns:xlink="http://www.w3.org/1999/xlink" width="50" height="50">
<defs>



 <path fill="#000000" id="i-411" d="M32.655,28.413C34.753,25.47,36,21.881,36,18c0-9.925-8.075-18-18-18C8.075,0,0,8.075,0,18c0,9.925,8.075,18,18,18 c3.881,0,7.47-1.247,10.413-3.345l14.759,14.759l4.242-4.242L32.655,28.413z M18,34C9.178,34,2,26.822,2,18S9.178,2,18,2 s16,7.178,16,16S26.822,34,18,34z M30,31.414c0,0-0.024-0.001-0.037-0.002c0.511-0.457,0.995-0.941,1.452-1.452 C31.414,29.975,31.414,30,31.414,30l13.172,13.172l-1.414,1.414L30,31.414z"/> 
</defs>

<use x="0" y="0" xlink:href="#i-411"/>

</svg>